<svg width="116" height="116" viewBox="0 0 116 116" fill="none" xmlns="http://www.w3.org/2000/svg">
<g clip-path="url(#clip0_2441_2936)">
<path d="M116 0H0V116H116V0Z" fill="white"/>
<path d="M12.0833 7.25H7.25V12.0833H12.0833V7.25Z" fill="black"/>
<path d="M16.9167 7.25H12.0833V12.0833H16.9167V7.25Z" fill="black"/>
<path d="M21.75 7.25H16.9167V12.0833H21.75V7.25Z" fill="black"/>
<path d="M26.5833 7.25H21.75V12.0833H26.5833V7.25Z" fill="black"/>
<path d="M31.4167 7.25H26.5833V12.0833H31.4167V7.25Z" fill="black"/>
<path d="M36.25 7.25H31.4167V12.0833H36.25V7.25Z" fill="black"/>
<path d="M41.0833 7.25H36.25V12.0833H41.0833V7.25Z" fill="black"/>
<path d="M50.75 7.25H45.9167V12.0833H50.75V7.25Z" fill="black"/>
<path d="M55.5833 7.25H50.75V12.0833H55.5833V7.25Z" fill="black"/>
<path d="M65.25 7.25H60.4167V12.0833H65.25V7.25Z" fill="black"/>
<path d="M79.75 7.25H74.9167V12.0833H79.75V7.25Z" fill="black"/>
<path d="M84.5833 7.25H79.75V12.0833H84.5833V7.25Z" fill="black"/>
<path d="M89.4167 7.25H84.5833V12.0833H89.4167V7.25Z" fill="black"/>
<path d="M94.25 7.25H89.4167V12.0833H94.25V7.25Z" fill="black"/>
<path d="M99.0833 7.25H94.25V12.0833H99.0833V7.25Z" fill="black"/>
<path d="M103.917 7.25H99.0833V12.0833H103.917V7.25Z" fill="black"/>
<path d="M108.75 7.25H103.917V12.0833H108.75V7.25Z" fill="black"/>
<path d="M12.0833 12.0833H7.25V16.9167H12.0833V12.0833Z" fill="black"/>
<path d="M41.0833 12.0833H36.25V16.9167H41.0833V12.0833Z" fill="black"/>
<path d="M60.4167 12.0833H55.5833L55.5833 16.9167H60.4167L60.4167 12.0833Z" fill="black"/>
<path d="M65.25 12.0833H60.4167L60.4167 16.9167H65.25V12.0833Z" fill="black"/>
<path d="M79.75 12.0833H74.9167V16.9167H79.75V12.0833Z" fill="black"/>
<path d="M108.75 12.0833H103.917V16.9167H108.75V12.0833Z" fill="black"/>
<path d="M12.0833 16.9167H7.25V21.75H12.0833V16.9167Z" fill="black"/>
<path d="M21.75 16.9167H16.9167V21.75H21.75V16.9167Z" fill="black"/>
<path d="M26.5833 16.9167H21.75V21.75H26.5833V16.9167Z" fill="black"/>
<path d="M31.4167 16.9167H26.5833V21.75H31.4167V16.9167Z" fill="black"/>
<path d="M41.0833 16.9167H36.25V21.75H41.0833V16.9167Z" fill="black"/>
<path d="M50.75 16.9167H45.9167V21.75H50.75V16.9167Z" fill="black"/>
<path d="M55.5833 16.9167H50.75V21.75H55.5833L55.5833 16.9167Z" fill="black"/>
<path d="M60.4167 16.9167H55.5833L55.5833 21.75H60.4167V16.9167Z" fill="black"/>
<path d="M70.0833 16.9167H65.25V21.75H70.0833V16.9167Z" fill="black"/>
<path d="M79.75 16.9167H74.9167V21.75H79.75V16.9167Z" fill="black"/>
<path d="M89.4167 16.9167H84.5833V21.75H89.4167V16.9167Z" fill="black"/>
<path d="M94.25 16.9167H89.4167V21.75H94.25V16.9167Z" fill="black"/>
<path d="M99.0833 16.9167H94.25V21.75H99.0833V16.9167Z" fill="black"/>
<path d="M108.75 16.9167H103.917V21.75H108.75V16.9167Z" fill="black"/>
<path d="M12.0833 21.75H7.25V26.5833H12.0833V21.75Z" fill="black"/>
<path d="M21.75 21.75H16.9167V26.5833H21.75V21.75Z" fill="black"/>
<path d="M26.5833 21.75H21.75V26.5833H26.5833V21.75Z" fill="black"/>
<path d="M31.4167 21.75H26.5833V26.5833H31.4167V21.75Z" fill="black"/>
<path d="M41.0833 21.75H36.25V26.5833H41.0833V21.75Z" fill="black"/>
<path d="M50.75 21.75H45.9167V26.5833H50.75V21.75Z" fill="black"/>
<path d="M55.5833 21.75H50.75V26.5833H55.5833V21.75Z" fill="black"/>
<path d="M65.25 21.75H60.4167L60.4167 26.5833H65.25V21.75Z" fill="black"/>
<path d="M79.75 21.75H74.9167V26.5833H79.75V21.75Z" fill="black"/>
<path d="M89.4167 21.75H84.5833V26.5833H89.4167V21.75Z" fill="black"/>
<path d="M94.25 21.75H89.4167V26.5833H94.25V21.75Z" fill="black"/>
<path d="M99.0833 21.75H94.25V26.5833H99.0833V21.75Z" fill="black"/>
<path d="M108.75 21.75H103.917V26.5833H108.75V21.75Z" fill="black"/>
<path d="M12.0833 26.5833H7.25V31.4167H12.0833V26.5833Z" fill="black"/>
<path d="M21.75 26.5833H16.9167V31.4167H21.75V26.5833Z" fill="black"/>
<path d="M26.5833 26.5833H21.75V31.4167H26.5833V26.5833Z" fill="black"/>
<path d="M31.4167 26.5833H26.5833V31.4167H31.4167V26.5833Z" fill="black"/>
<path d="M41.0833 26.5833H36.25V31.4167H41.0833V26.5833Z" fill="black"/>
<path d="M50.75 26.5833H45.9167V31.4167H50.75V26.5833Z" fill="black"/>
<path d="M65.25 26.5833H60.4167V31.4167H65.25V26.5833Z" fill="black"/>
<path d="M79.75 26.5833H74.9167V31.4167H79.75V26.5833Z" fill="black"/>
<path d="M89.4167 26.5833H84.5833V31.4167H89.4167V26.5833Z" fill="black"/>
<path d="M94.25 26.5833H89.4167V31.4167H94.25V26.5833Z" fill="black"/>
<path d="M99.0833 26.5833H94.25V31.4167H99.0833V26.5833Z" fill="black"/>
<path d="M108.75 26.5833H103.917V31.4167H108.75V26.5833Z" fill="black"/>
<path d="M12.0833 31.4167H7.25V36.25H12.0833V31.4167Z" fill="black"/>
<path d="M41.0833 31.4167H36.25V36.25H41.0833V31.4167Z" fill="black"/>
<path d="M50.75 31.4167H45.9167V36.25H50.75V31.4167Z" fill="black"/>
<path d="M55.5833 31.4167H50.75V36.25H55.5833V31.4167Z" fill="black"/>
<path d="M79.75 31.4167H74.9167V36.25H79.75V31.4167Z" fill="black"/>
<path d="M108.75 31.4167H103.917V36.25H108.75V31.4167Z" fill="black"/>
<path d="M12.0833 36.25H7.25V41.0833H12.0833V36.25Z" fill="black"/>
<path d="M16.9167 36.25H12.0833V41.0833H16.9167V36.25Z" fill="black"/>
<path d="M21.75 36.25H16.9167V41.0833H21.75V36.25Z" fill="black"/>
<path d="M26.5833 36.25H21.75V41.0833H26.5833V36.25Z" fill="black"/>
<path d="M31.4167 36.25H26.5833V41.0833H31.4167V36.25Z" fill="black"/>
<path d="M36.25 36.25H31.4167V41.0833H36.25V36.25Z" fill="black"/>
<path d="M41.0833 36.25H36.25V41.0833H41.0833V36.25Z" fill="black"/>
<path d="M50.75 36.25H45.9167V41.0833H50.75V36.25Z" fill="black"/>
<path d="M60.4167 36.25H55.5833L55.5833 41.0833H60.4167V36.25Z" fill="black"/>
<path d="M70.0833 36.25H65.25V41.0833H70.0833V36.25Z" fill="black"/>
<path d="M79.75 36.25H74.9167V41.0833H79.75V36.25Z" fill="black"/>
<path d="M84.5833 36.25H79.75V41.0833H84.5833V36.25Z" fill="black"/>
<path d="M89.4167 36.25H84.5833V41.0833H89.4167V36.25Z" fill="black"/>
<path d="M94.25 36.25H89.4167V41.0833H94.25V36.25Z" fill="black"/>
<path d="M99.0833 36.25H94.25V41.0833H99.0833V36.25Z" fill="black"/>
<path d="M103.917 36.25H99.0833V41.0833H103.917V36.25Z" fill="black"/>
<path d="M108.75 36.25H103.917V41.0833H108.75V36.25Z" fill="black"/>
<path d="M55.5833 41.0833H50.75L50.75 45.9167H55.5833L55.5833 41.0833Z" fill="black"/>
<path d="M65.25 41.0833H60.4167L60.4167 45.9167H65.25V41.0833Z" fill="black"/>
<path d="M70.0833 41.0833H65.25V45.9167H70.0833V41.0833Z" fill="black"/>
<path d="M21.75 45.9167H16.9167V50.75H21.75V45.9167Z" fill="black"/>
<path d="M26.5833 45.9167H21.75V50.75H26.5833V45.9167Z" fill="black"/>
<path d="M31.4167 45.9167H26.5833V50.75H31.4167V45.9167Z" fill="black"/>
<path d="M36.25 45.9167H31.4167V50.75H36.25V45.9167Z" fill="black"/>
<path d="M41.0833 45.9167H36.25V50.75H41.0833V45.9167Z" fill="black"/>
<path d="M45.9167 45.9167H41.0833V50.75H45.9167V45.9167Z" fill="black"/>
<path d="M65.25 45.9167H60.4167V50.75H65.25V45.9167Z" fill="black"/>
<path d="M70.0833 45.9167H65.25V50.75H70.0833V45.9167Z" fill="black"/>
<path d="M74.9167 45.9167L70.0833 45.9167V50.75H74.9167V45.9167Z" fill="black"/>
<path d="M84.5833 45.9167H79.75V50.75H84.5833V45.9167Z" fill="black"/>
<path d="M89.4167 45.9167H84.5833V50.75H89.4167V45.9167Z" fill="black"/>
<path d="M94.25 45.9167H89.4167V50.75H94.25V45.9167Z" fill="black"/>
<path d="M99.0833 45.9167H94.25V50.75H99.0833V45.9167Z" fill="black"/>
<path d="M108.75 45.9167H103.917V50.75H108.75V45.9167Z" fill="black"/>
<path d="M21.75 50.75H16.9167V55.5833H21.75V50.75Z" fill="black"/>
<path d="M26.5833 50.75H21.75V55.5833H26.5833V50.75Z" fill="black"/>
<path d="M36.25 50.75H31.4167V55.5833H36.25V50.75Z" fill="black"/>
<path d="M50.75 50.75L45.9167 50.75L45.9167 55.5833H50.75V50.75Z" fill="black"/>
<path d="M55.5833 50.75H50.75V55.5833H55.5833V50.75Z" fill="black"/>
<path d="M60.4167 50.75L55.5833 50.75V55.5833H60.4167L60.4167 50.75Z" fill="black"/>
<path d="M70.0833 50.75H65.25V55.5833H70.0833V50.75Z" fill="black"/>
<path d="M79.75 50.75H74.9167V55.5833H79.75V50.75Z" fill="black"/>
<path d="M94.25 50.75H89.4167V55.5833H94.25V50.75Z" fill="black"/>
<path d="M99.0833 50.75H94.25V55.5833H99.0833V50.75Z" fill="black"/>
<path d="M108.75 50.75H103.917V55.5833H108.75V50.75Z" fill="black"/>
<path d="M12.0833 55.5833H7.25V60.4167H12.0833V55.5833Z" fill="black"/>
<path d="M16.9167 55.5833L12.0833 55.5833V60.4167H16.9167V55.5833Z" fill="black"/>
<path d="M21.75 55.5833H16.9167V60.4167H21.75V55.5833Z" fill="black"/>
<path d="M31.4167 55.5833H26.5833V60.4167H31.4167V55.5833Z" fill="black"/>
<path d="M41.0833 55.5833L36.25 55.5833V60.4167H41.0833V55.5833Z" fill="black"/>
<path d="M60.4167 55.5833H55.5833L55.5833 60.4167H60.4167V55.5833Z" fill="black"/>
<path d="M74.9167 55.5833H70.0833V60.4167H74.9167V55.5833Z" fill="black"/>
<path d="M84.5833 55.5833L79.75 55.5833V60.4167H84.5833V55.5833Z" fill="black"/>
<path d="M94.25 55.5833H89.4167V60.4167H94.25V55.5833Z" fill="black"/>
<path d="M99.0833 55.5833H94.25V60.4167H99.0833V55.5833Z" fill="black"/>
<path d="M108.75 55.5833H103.917V60.4167H108.75V55.5833Z" fill="black"/>
<path d="M12.0833 60.4167H7.25V65.25H12.0833V60.4167Z" fill="black"/>
<path d="M16.9167 60.4167H12.0833V65.25H16.9167V60.4167Z" fill="black"/>
<path d="M31.4167 60.4167H26.5833V65.25H31.4167V60.4167Z" fill="black"/>
<path d="M45.9167 60.4167L41.0833 60.4167V65.25H45.9167V60.4167Z" fill="black"/>
<path d="M60.4167 60.4167H55.5833V65.25H60.4167V60.4167Z" fill="black"/>
<path d="M70.0833 60.4167L65.25 60.4167V65.25H70.0833V60.4167Z" fill="black"/>
<path d="M74.9167 60.4167H70.0833V65.25H74.9167V60.4167Z" fill="black"/>
<path d="M84.5833 60.4167H79.75V65.25H84.5833V60.4167Z" fill="black"/>
<path d="M99.0833 60.4167H94.25V65.25H99.0833V60.4167Z" fill="black"/>
<path d="M108.75 60.4167H103.917V65.25H108.75V60.4167Z" fill="black"/>
<path d="M16.9167 65.25H12.0833V70.0833H16.9167V65.25Z" fill="black"/>
<path d="M21.75 65.25H16.9167V70.0833H21.75V65.25Z" fill="black"/>
<path d="M26.5833 65.25H21.75V70.0833H26.5833V65.25Z" fill="black"/>
<path d="M31.4167 65.25H26.5833V70.0833H31.4167V65.25Z" fill="black"/>
<path d="M36.25 65.25H31.4167V70.0833H36.25V65.25Z" fill="black"/>
<path d="M41.0833 65.25H36.25V70.0833H41.0833V65.25Z" fill="black"/>
<path d="M45.9167 65.25H41.0833V70.0833H45.9167V65.25Z" fill="black"/>
<path d="M50.75 65.25H45.9167V70.0833H50.75V65.25Z" fill="black"/>
<path d="M55.5833 65.25H50.75V70.0833H55.5833L55.5833 65.25Z" fill="black"/>
<path d="M74.9167 65.25H70.0833V70.0833H74.9167V65.25Z" fill="black"/>
<path d="M79.75 65.25H74.9167V70.0833H79.75V65.25Z" fill="black"/>
<path d="M84.5833 65.25H79.75V70.0833H84.5833V65.25Z" fill="black"/>
<path d="M89.4167 65.25H84.5833V70.0833H89.4167V65.25Z" fill="black"/>
<path d="M94.25 65.25H89.4167V70.0833H94.25V65.25Z" fill="black"/>
<path d="M60.4167 70.0833H55.5833L55.5833 74.9167H60.4167V70.0833Z" fill="black"/>
<path d="M70.0833 70.0833H65.25V74.9167H70.0833V70.0833Z" fill="black"/>
<path d="M74.9167 70.0833H70.0833V74.9167H74.9167V70.0833Z" fill="black"/>
<path d="M84.5833 70.0833H79.75V74.9167H84.5833V70.0833Z" fill="black"/>
<path d="M99.0833 70.0833H94.25V74.9167H99.0833V70.0833Z" fill="black"/>
<path d="M108.75 70.0833H103.917V74.9167H108.75V70.0833Z" fill="black"/>
<path d="M12.0833 74.9167H7.25V79.75H12.0833V74.9167Z" fill="black"/>
<path d="M16.9167 74.9167H12.0833V79.75H16.9167V74.9167Z" fill="black"/>
<path d="M21.75 74.9167H16.9167V79.75H21.75V74.9167Z" fill="black"/>
<path d="M26.5833 74.9167H21.75V79.75H26.5833V74.9167Z" fill="black"/>
<path d="M31.4167 74.9167H26.5833V79.75H31.4167V74.9167Z" fill="black"/>
<path d="M36.25 74.9167H31.4167V79.75H36.25V74.9167Z" fill="black"/>
<path d="M41.0833 74.9167H36.25V79.75H41.0833V74.9167Z" fill="black"/>
<path d="M50.75 74.9167H45.9167V79.75H50.75V74.9167Z" fill="black"/>
<path d="M74.9167 74.9167H70.0833V79.75H74.9167V74.9167Z" fill="black"/>
<path d="M79.75 74.9167H74.9167V79.75H79.75V74.9167Z" fill="black"/>
<path d="M84.5833 74.9167H79.75V79.75H84.5833V74.9167Z" fill="black"/>
<path d="M12.0833 79.75H7.25V84.5833H12.0833V79.75Z" fill="black"/>
<path d="M41.0833 79.75H36.25V84.5833H41.0833V79.75Z" fill="black"/>
<path d="M50.75 79.75H45.9167V84.5833H50.75V79.75Z" fill="black"/>
<path d="M55.5833 79.75H50.75V84.5833H55.5833V79.75Z" fill="black"/>
<path d="M65.25 79.75H60.4167V84.5833H65.25V79.75Z" fill="black"/>
<path d="M74.9167 79.75H70.0833V84.5833H74.9167V79.75Z" fill="black"/>
<path d="M79.75 79.75H74.9167V84.5833H79.75V79.75Z" fill="black"/>
<path d="M103.917 79.75H99.0833V84.5833H103.917V79.75Z" fill="black"/>
<path d="M108.75 79.75H103.917V84.5833H108.75V79.75Z" fill="black"/>
<path d="M12.0833 84.5833H7.25V89.4167H12.0833V84.5833Z" fill="black"/>
<path d="M21.75 84.5833H16.9167V89.4167H21.75V84.5833Z" fill="black"/>
<path d="M26.5833 84.5833H21.75V89.4167H26.5833V84.5833Z" fill="black"/>
<path d="M31.4167 84.5833H26.5833V89.4167H31.4167V84.5833Z" fill="black"/>
<path d="M41.0833 84.5833H36.25V89.4167H41.0833V84.5833Z" fill="black"/>
<path d="M50.75 84.5833H45.9167V89.4167H50.75V84.5833Z" fill="black"/>
<path d="M60.4167 84.5833H55.5833L55.5833 89.4167H60.4167L60.4167 84.5833Z" fill="black"/>
<path d="M65.25 84.5833H60.4167L60.4167 89.4167H65.25V84.5833Z" fill="black"/>
<path d="M70.0833 84.5833H65.25V89.4167H70.0833V84.5833Z" fill="black"/>
<path d="M94.25 84.5833H89.4167V89.4167H94.25V84.5833Z" fill="black"/>
<path d="M103.917 84.5833H99.0833V89.4167H103.917V84.5833Z" fill="black"/>
<path d="M12.0833 89.4167H7.25V94.25H12.0833V89.4167Z" fill="black"/>
<path d="M21.75 89.4167H16.9167V94.25H21.75V89.4167Z" fill="black"/>
<path d="M26.5833 89.4167H21.75V94.25H26.5833V89.4167Z" fill="black"/>
<path d="M31.4167 89.4167H26.5833V94.25H31.4167V89.4167Z" fill="black"/>
<path d="M41.0833 89.4167H36.25V94.25H41.0833V89.4167Z" fill="black"/>
<path d="M50.75 89.4167H45.9167V94.25H50.75V89.4167Z" fill="black"/>
<path d="M65.25 89.4167H60.4167L60.4167 94.25H65.25V89.4167Z" fill="black"/>
<path d="M74.9167 89.4167H70.0833V94.25H74.9167V89.4167Z" fill="black"/>
<path d="M94.25 89.4167H89.4167V94.25H94.25V89.4167Z" fill="black"/>
<path d="M103.917 89.4167H99.0833V94.25H103.917V89.4167Z" fill="black"/>
<path d="M108.75 89.4167H103.917V94.25H108.75V89.4167Z" fill="black"/>
<path d="M12.0833 94.25H7.25V99.0833H12.0833V94.25Z" fill="black"/>
<path d="M21.75 94.25H16.9167V99.0833H21.75V94.25Z" fill="black"/>
<path d="M26.5833 94.25H21.75V99.0833H26.5833V94.25Z" fill="black"/>
<path d="M31.4167 94.25H26.5833V99.0833H31.4167V94.25Z" fill="black"/>
<path d="M41.0833 94.25H36.25V99.0833H41.0833V94.25Z" fill="black"/>
<path d="M50.75 94.25H45.9167V99.0833H50.75V94.25Z" fill="black"/>
<path d="M55.5833 94.25H50.75V99.0833H55.5833V94.25Z" fill="black"/>
<path d="M65.25 94.25H60.4167V99.0833H65.25V94.25Z" fill="black"/>
<path d="M74.9167 94.25H70.0833V99.0833H74.9167V94.25Z" fill="black"/>
<path d="M79.75 94.25H74.9167V99.0833H79.75V94.25Z" fill="black"/>
<path d="M84.5833 94.25H79.75V99.0833H84.5833V94.25Z" fill="black"/>
<path d="M103.917 94.25H99.0833V99.0833H103.917V94.25Z" fill="black"/>
<path d="M12.0833 99.0833H7.25V103.917H12.0833V99.0833Z" fill="black"/>
<path d="M41.0833 99.0833H36.25V103.917H41.0833V99.0833Z" fill="black"/>
<path d="M55.5833 99.0833H50.75L50.75 103.917H55.5833V99.0833Z" fill="black"/>
<path d="M60.4167 99.0833H55.5833V103.917H60.4167L60.4167 99.0833Z" fill="black"/>
<path d="M79.75 99.0833H74.9167V103.917H79.75V99.0833Z" fill="black"/>
<path d="M89.4167 99.0833H84.5833V103.917H89.4167V99.0833Z" fill="black"/>
<path d="M108.75 99.0833H103.917V103.917H108.75V99.0833Z" fill="black"/>
<path d="M12.0833 103.917H7.25V108.75H12.0833V103.917Z" fill="black"/>
<path d="M16.9167 103.917H12.0833V108.75H16.9167V103.917Z" fill="black"/>
<path d="M21.75 103.917H16.9167V108.75H21.75V103.917Z" fill="black"/>
<path d="M26.5833 103.917H21.75V108.75H26.5833V103.917Z" fill="black"/>
<path d="M31.4167 103.917H26.5833V108.75H31.4167V103.917Z" fill="black"/>
<path d="M36.25 103.917H31.4167V108.75H36.25V103.917Z" fill="black"/>
<path d="M41.0833 103.917H36.25V108.75H41.0833V103.917Z" fill="black"/>
<path d="M55.5833 103.917H50.75V108.75H55.5833V103.917Z" fill="black"/>
<path d="M65.25 103.917H60.4167L60.4167 108.75H65.25V103.917Z" fill="black"/>
<path d="M74.9167 103.917H70.0833V108.75H74.9167V103.917Z" fill="black"/>
<path d="M84.5833 103.917H79.75V108.75H84.5833V103.917Z" fill="black"/>
</g>
<defs>
<clipPath id="clip0_2441_2936">
<rect width="116" height="116" fill="white"/>
</clipPath>
</defs>
</svg>
