<svg width="24" height="21" viewBox="0 0 24 21" fill="none" xmlns="http://www.w3.org/2000/svg">
<g id="Group 6">
<path id="Vector" d="M22.7989 4.79978H6.55409L4.69178 0.703167C4.59644 0.493535 4.44279 0.315766 4.24916 0.191081C4.05554 0.0663969 3.83013 6.37684e-05 3.59983 0H0V2.39989H2.82707L8.5076 14.8961C8.60295 15.1057 8.7566 15.2835 8.95022 15.4082C9.14385 15.5329 9.36926 15.5992 9.59955 15.5993H19.1991C19.6791 15.5993 20.1135 15.3137 20.3019 14.8721L23.9017 6.4725C23.9806 6.29003 24.0128 6.0908 23.9954 5.89277C23.9781 5.69474 23.9117 5.50414 23.8023 5.33818C23.6929 5.17221 23.5439 5.03609 23.3687 4.9421C23.1935 4.8481 22.9977 4.79919 22.7989 4.79978Z" fill="black"/>
<path id="Vector_2" d="M10.1996 20.3991C11.1936 20.3991 11.9995 19.5933 11.9995 18.5992C11.9995 17.6052 11.1936 16.7993 10.1996 16.7993C9.20551 16.7993 8.39966 17.6052 8.39966 18.5992C8.39966 19.5933 9.20551 20.3991 10.1996 20.3991Z" fill="black"/>
<path id="Vector_3" d="M18.5992 20.3991C19.5933 20.3991 20.3991 19.5933 20.3991 18.5992C20.3991 17.6052 19.5933 16.7993 18.5992 16.7993C17.6052 16.7993 16.7993 17.6052 16.7993 18.5992C16.7993 19.5933 17.6052 20.3991 18.5992 20.3991Z" fill="black"/>
</g>
</svg>
