<svg width="49" height="32" viewBox="0 0 49 32" fill="none" xmlns="http://www.w3.org/2000/svg">
<path d="M5.67369 19L4.12632 16H14.9579L13.72 13H3.61053L2.06316 10H18.1558L16.9179 7H1.77432L0 4H7.73684C7.73684 2.93913 8.17158 1.92172 8.94541 1.17157C9.71925 0.421427 10.7688 0 11.8632 0H36.6211V8H42.8105L49 16V26H44.8737C44.8737 27.5913 44.2216 29.1174 43.0608 30.2426C41.9001 31.3679 40.3258 32 38.6842 32C37.0427 32 35.4683 31.3679 34.3076 30.2426C33.1468 29.1174 32.4947 27.5913 32.4947 26H24.2421C24.2421 27.5913 23.59 29.1174 22.4293 30.2426C21.2685 31.3679 19.6942 32 18.0526 32C16.4111 32 14.8368 31.3679 13.676 30.2426C12.5153 29.1174 11.8632 27.5913 11.8632 26H7.73684V19H5.67369ZM38.6842 29C39.505 29 40.2921 28.6839 40.8725 28.1213C41.4529 27.5587 41.7789 26.7956 41.7789 26C41.7789 25.2044 41.4529 24.4413 40.8725 23.8787C40.2921 23.3161 39.505 23 38.6842 23C37.8634 23 37.0763 23.3161 36.4959 23.8787C35.9155 24.4413 35.5895 25.2044 35.5895 26C35.5895 26.7956 35.9155 27.5587 36.4959 28.1213C37.0763 28.6839 37.8634 29 38.6842 29ZM41.7789 11H36.6211V16H45.8227L41.7789 11ZM18.0526 29C18.8734 29 19.6606 28.6839 20.2409 28.1213C20.8213 27.5587 21.1474 26.7956 21.1474 26C21.1474 25.2044 20.8213 24.4413 20.2409 23.8787C19.6606 23.3161 18.8734 23 18.0526 23C17.2319 23 16.4447 23.3161 15.8643 23.8787C15.2839 24.4413 14.9579 25.2044 14.9579 26C14.9579 26.7956 15.2839 27.5587 15.8643 28.1213C16.4447 28.6839 17.2319 29 18.0526 29Z" fill="black"/>
</svg>
