<svg width="45" height="30" viewBox="0 0 45 30" fill="none" xmlns="http://www.w3.org/2000/svg">
<path id="Vector" d="M45 4.26983L41.8275 1.13417L35.415 8.2728C30.78 3.11342 24.3675 0 17.1225 0C10.62 0 4.6575 2.57969 0 6.67161L3.195 9.8295C7.02 6.51594 11.8575 4.44774 17.1225 4.44774C23.2875 4.44774 28.575 7.24981 32.355 11.6531L25.875 18.8584L16.875 9.96293L0 26.6642L3.375 30L16.875 16.6345L25.875 25.53L34.9875 15.4114C36.675 18.4136 37.8 21.8606 38.2275 25.53H42.75C42.255 20.4151 40.6125 15.7672 38.16 11.8755L45 4.26983Z" fill="#CED4D7"/>
</svg>
