<svg width="39" height="27" viewBox="0 0 39 27" fill="none" xmlns="http://www.w3.org/2000/svg">
<path d="M28.3816 12.4214L21.8127 1.60502L20.8377 0L19.7704 1.54656L16.1005 6.85976L10.9688 10.3697L10.7029 10.5514L10.5631 10.8412L8.0093 16.115L5.37095 17.4182L0 25.0544V27H39V24.386L34.9238 17.5592L28.3816 12.4214ZM6.18995 18.3637L8.92385 17.0134L11.0506 22.2421L6.18995 18.3637ZM16.924 23.6063L17.8353 18.1495L11.0506 16.786L18.6459 14.3594L16.9747 7.72835L20.772 2.23025L19.7593 6.78352L22.4939 10.4205L19.1516 10.2693L24.0129 13.7094L20.3677 16.0298L16.924 23.6063ZM29.8863 20.7693L22.8988 23.6063L27.7602 19.8168L31.1246 16.115L33.9879 18.3637L29.8863 20.7693Z" fill="#CED4D7"/>
</svg>
