<svg width="31" height="37" viewBox="0 0 31 37" fill="none" xmlns="http://www.w3.org/2000/svg">
<path id="Vector" d="M6.2 0C9.35314 0 10.9297 3.996 8.71543 6.327C6.48343 8.6395 2.65714 6.993 2.65714 3.7C2.65714 2.7187 3.03041 1.77759 3.69482 1.0837C4.35924 0.38982 5.26038 0 6.2 0ZM3.54286 9.25H8.85714C9.79677 9.25 10.6979 9.63982 11.3623 10.3337C12.0267 11.0276 12.4 11.9687 12.4 12.95V23.125H9.74286V37H2.65714V23.125H0V12.95C0 11.9687 0.373264 11.0276 1.03768 10.3337C1.70209 9.63982 2.60323 9.25 3.54286 9.25ZM31 11.1H20.3714V14.8H31V11.1ZM31 16.65H25.6857V20.35H31V16.65ZM31 0H20.3714V3.7H31V0ZM31 5.55H25.6857V9.25H31V5.55ZM31 22.2H20.3714V25.9H31V22.2ZM31 33.3H20.3714V37H31V33.3ZM31 27.75H25.6857V31.45H31" fill="#CED4D7"/>
</svg>
